# xmcd
#
# Track frame offsets: 
#        150
#        46900
#        78846
#        99488
#        149599
#        175383
#        195799
#        212718
#        227020
#        251477
#        273967
#        295196
#
# Disc length: 4211 seconds
#
# Revision: 0
# Processed by: cddbd v1.5.2PL0 Copyright (c) Steve Scherf et al.
# Submitted via: ExactAudioCopy v1.0b3
#
DISCID=a210710c
DTITLE=Various Artist - Svenska Skratt [CD 5)
DYEAR=2011
DGENRE=Comedy
TTITLE0=Lars Ekborg, Åke Grönberg, Gunwer Bergqvist, Margaretha Krook 
TTITLE0=/ Skattkammarön
TTITLE1=Lars Ekborg - Bunta Ihop Dom
TTITLE2=Lars Ekborg, Lissi Alandh, Povel Ramel - Grynkorv
TTITLE3=Lars Ekborg and Stig Järrel - Hemmakväll
TTITLE4=Lars Ekborg - Han Som Stiger Mot Höjderna (Fönsterputsaren)
TTITLE5=Lars Ekborg - En Ljusskygg Figur
TTITLE6=Lars Ekborg - Reklamradio Sydväst
TTITLE7=Lars Ekborg - Gift Med En Yrkeskvinna
TTITLE8=Lars Ekborg and Stig Järrel - Då Rycker Det Gamla Gardet Fram
TTITLE9=Lars Ekborg - Prestige
TTITLE10=Lars Ekborg and Sten Lonnert - Två Eldiga Spanjorer
TTITLE11=Lars Ekborg and Sven Holmberg - Köp En Tulpan
EXTD=
EXTT0=
EXTT1=
EXTT2=
EXTT3=
EXTT4=
EXTT5=
EXTT6=
EXTT7=
EXTT8=
EXTT9=
EXTT10=
EXTT11=
PLAYORDER=
